<?xml version="1.0" standalone="no"?>
<!DOCTYPE svg PUBLIC "-//W3C//DTD SVG 20010904//EN"
 "http://www.w3.org/TR/2001/REC-SVG-20010904/DTD/svg10.dtd">
<svg version="1.0" xmlns="http://www.w3.org/2000/svg"
 width="354.000000pt" height="354.000000pt" viewBox="0 0 354.000000 354.000000"
 preserveAspectRatio="xMidYMid meet">
<metadata>
Created by potrace 1.14, written by Peter Selinger 2001-2017
</metadata>
<g transform="translate(0.000000,354.000000) scale(0.100000,-0.100000)"
fill="#000000" stroke="none">
<path d="M2010 3532 c0 -4 -235 -7 -523 -8 -509 0 -539 -1 -564 -17 -7 -5 -13
-5 -13 -1 0 3 -7 1 -15 -6 -8 -7 -15 -9 -15 -4 0 4 -7 -1 -15 -12 -8 -10 -15
-15 -15 -11 0 9 -19 -6 -56 -43 -13 -14 -22 -30 -20 -37 3 -7 -1 -10 -10 -6
-12 5 -19 -7 -15 -29 0 -5 -3 -8 -8 -8 -13 0 -35 -67 -36 -110 0 -19 -4 -41
-9 -48 -4 -7 -2 -12 4 -12 6 0 8 -5 4 -12 -9 -15 -11 -158 -2 -158 4 0 5 -6 2
-14 -9 -24 -10 -256 -1 -256 5 0 5 -5 1 -12 -10 -16 -11 -228 -1 -228 5 0 5
-5 1 -12 -10 -16 -11 -228 -1 -228 5 0 5 -5 1 -12 -10 -16 -11 -228 -1 -228 5
0 5 -5 1 -12 -10 -16 -11 -228 -1 -228 5 0 5 -5 1 -12 -9 -15 -11 -198 -2
-198 4 0 5 -6 2 -14 -9 -22 -10 -146 -2 -146 4 0 5 -6 2 -14 -9 -22 -10 -146
-2 -146 4 0 5 -6 2 -14 -9 -22 -10 -146 -2 -146 4 0 5 -7 2 -15 -9 -24 -10
-175 -1 -175 5 0 5 -5 1 -12 -10 -16 -11 -228 -1 -228 5 0 5 -5 1 -12 -11 -18
-11 -288 1 -288 5 0 4 -5 -2 -11 -8 -8 -8 -20 -3 -35 7 -17 6 -24 -2 -24 -9 0
-9 -3 0 -12 7 -7 12 -22 12 -35 0 -13 6 -26 14 -29 8 -3 12 -13 9 -25 -3 -10
0 -19 6 -19 6 0 11 -7 11 -15 0 -9 7 -18 15 -21 8 -3 17 -14 20 -25 4 -11 9
-18 13 -16 11 6 41 -30 34 -39 -4 -4 -2 -4 5 -1 6 4 19 0 27 -9 9 -8 16 -13
16 -10 0 3 19 -3 42 -14 32 -14 44 -16 50 -7 6 9 8 8 8 -2 0 -11 4 -10 16 5 8
10 13 14 10 7 -9 -17 15 -28 25 -12 7 12 9 12 9 0 0 -11 4 -9 15 5 9 10 14 13
13 5 -2 -7 3 -16 11 -19 8 -2 11 0 7 6 -3 6 1 8 11 6 10 -3 56 -6 103 -7 65
-2 88 2 98 13 9 12 12 12 10 1 -2 -7 3 -16 11 -19 8 -3 11 0 7 7 -4 6 -2 9 6
6 27 -11 288 -10 288 0 0 7 3 7 8 0 4 -5 48 -10 97 -10 68 0 93 4 102 15 6 8
15 12 19 7 4 -4 2 -7 -4 -7 -7 0 -12 -3 -12 -7 0 -5 19 -7 42 -5 24 1 48 3 53
3 6 0 67 -1 136 -2 69 -1 132 2 139 6 8 5 11 4 7 -1 -6 -11 33 -11 50 -1 6 4
14 1 17 -5 3 -9 8 -8 16 5 9 14 15 16 26 6 23 -19 245 -18 262 1 8 8 11 9 7 2
-5 -9 0 -12 17 -9 29 4 101 37 110 51 4 6 8 7 8 3 0 -4 6 -2 14 5 8 7 12 16 9
21 -2 4 1 7 6 7 6 0 20 9 31 20 11 11 17 20 14 20 -4 0 -1 6 5 13 6 8 7 18 3
22 -4 5 -2 5 4 2 6 -4 16 5 23 19 9 20 9 24 -1 18 -7 -4 -4 3 7 16 12 14 14
20 5 15 -12 -7 -13 -6 -3 6 15 19 23 119 9 119 -7 0 -8 3 -1 8 12 8 13 42 2
60 -5 6 -5 12 0 12 13 0 9 96 -5 113 -11 13 -10 15 10 11 23 -5 23 -5 -2 11
-14 9 -17 14 -7 11 9 -3 17 -1 17 4 0 6 -4 10 -9 10 -6 0 -6 12 -1 30 7 23 5
32 -8 40 -16 9 -15 9 1 10 13 0 17 5 12 19 -3 11 -1 22 4 26 7 4 7 12 -1 25
-7 10 -16 16 -22 13 -5 -4 -6 -1 -2 6 5 7 14 10 22 7 8 -3 11 0 7 9 -3 8 -8
13 -12 10 -4 -2 -8 3 -8 11 0 9 6 13 16 9 13 -5 14 -4 4 6 -16 16 -17 43 -2
33 8 -5 8 -1 0 13 -7 14 -7 24 2 33 9 10 9 11 0 6 -8 -5 -13 -1 -13 9 0 11 -5
15 -16 11 -8 -3 -12 -2 -9 4 3 6 16 10 28 10 13 0 17 3 11 8 -6 4 -13 17 -17
30 -4 18 -2 22 9 18 8 -3 14 -3 14 0 0 2 -10 9 -22 14 -18 7 -19 9 -5 9 16 1
16 3 1 28 -13 23 -13 24 -1 9 15 -18 16 -18 14 3 -1 11 -4 21 -7 21 -4 0 -5
13 -2 30 3 21 0 30 -9 31 -8 0 -5 4 6 9 11 5 15 9 9 9 -6 1 -9 12 -6 26 2 14
-2 33 -9 43 -10 12 -7 12 10 -3 l24 -20 -17 33 c-12 24 -13 32 -4 32 10 0 10
2 -1 9 -11 7 -11 9 0 14 10 4 9 6 -3 6 -10 1 -18 5 -18 11 0 5 6 7 13 5 14 -6
17 91 4 113 -8 11 5 17 28 12 6 -1 6 2 2 7 -5 4 -13 9 -18 9 -30 4 -32 6 -14
14 11 5 15 9 9 9 -6 1 -9 12 -6 26 2 14 -2 33 -9 43 -10 12 -7 12 10 -3 l24
-20 -17 33 c-12 24 -13 32 -4 32 8 0 9 3 3 8 -16 11 -15 44 1 38 8 -3 14 -3
14 0 0 2 -10 9 -22 14 -18 7 -19 9 -5 9 16 1 16 3 1 29 -13 22 -13 23 -1 8 15
-18 16 -18 14 3 -1 11 -4 21 -7 21 -4 0 -5 14 -2 30 3 21 0 30 -9 31 -8 0 -5
4 6 9 11 5 15 9 9 9 -6 1 -9 12 -6 26 2 14 -2 33 -9 43 -10 12 -7 12 10 -3
l24 -20 -17 33 c-12 24 -13 32 -4 32 10 0 10 2 -1 9 -11 7 -11 9 0 14 10 4 9
6 -3 6 -10 1 -18 5 -18 11 0 5 6 7 13 5 14 -6 17 91 4 113 -8 11 5 17 28 12 6
-1 6 2 2 7 -5 4 -13 9 -18 9 -30 4 -32 6 -14 14 11 5 15 9 9 9 -6 1 -9 12 -6
26 2 14 -2 33 -9 43 -10 12 -7 12 10 -3 l24 -20 -17 33 c-12 24 -13 32 -4 32
8 0 9 3 3 8 -16 11 -15 44 1 38 8 -3 14 -3 14 0 0 2 -10 9 -22 14 -18 7 -19 9
-5 9 16 1 16 3 1 29 -13 22 -13 23 -1 8 15 -18 16 -18 14 3 -1 11 -4 21 -7 21
-4 0 -5 14 -2 30 3 21 0 30 -9 31 -8 0 -5 4 6 9 11 5 15 9 9 9 -6 1 -9 12 -6
26 2 14 -2 33 -9 43 -10 13 -8 12 10 -3 l24 -20 -12 22 c-6 13 -9 34 -7 48 3
17 0 25 -9 25 -8 0 -16 4 -19 9 -4 5 2 7 11 5 16 -4 18 2 18 48 -1 29 -4 59
-8 66 -5 7 -3 12 7 12 9 0 16 5 16 11 0 5 -4 8 -8 5 -4 -2 -14 -1 -22 5 -12 7
-11 9 5 10 11 0 15 3 9 5 -6 3 -9 16 -6 29 2 14 -2 33 -9 43 -10 12 -7 12 10
-3 l24 -20 -17 33 c-12 24 -13 32 -4 32 8 0 9 3 3 8 -16 11 -15 44 1 38 8 -3
14 -3 14 0 0 2 -10 9 -22 14 -18 7 -19 9 -5 9 16 1 16 3 1 29 -13 22 -13 23
-1 8 15 -18 16 -18 14 3 -1 11 -4 21 -7 21 -4 0 -5 14 -2 30 3 21 0 30 -9 31
-8 0 -5 4 6 9 11 5 15 9 9 9 -15 1 -5 51 10 52 6 1 0 5 -14 9 -18 6 -20 8 -7
9 10 1 15 6 12 11 -4 6 -12 8 -18 4 -7 -3 -3 2 8 11 11 10 15 19 9 21 -6 3 -9
17 -6 33 4 29 -31 124 -55 151 -8 8 -21 24 -31 35 -22 27 -82 69 -82 58 0 -4
-5 0 -11 10 -9 15 -13 16 -27 5 -9 -7 -13 -8 -9 -2 10 18 -36 27 -145 30 -53
1 -101 5 -107 8 -6 4 -11 3 -11 -3 0 -6 -11 -6 -30 -1 -17 5 -30 5 -30 0 0 -5
-13 -5 -30 0 -17 5 -30 5 -30 0 0 -5 -13 -5 -30 0 -17 5 -30 5 -30 0 0 -5 -13
-5 -30 0 -17 5 -30 5 -30 0 0 -5 -13 -5 -30 0 -17 5 -30 5 -30 0 0 -5 -13 -5
-30 0 -16 5 -30 6 -30 2z m850 -2786 c0 -2 -7 -9 -15 -16 -13 -11 -14 -10 -9
4 5 14 24 23 24 12z m-10 -206 c0 -5 -5 -10 -11 -10 -5 0 -7 5 -4 10 3 6 8 10
11 10 2 0 4 -4 4 -10z m-1160 -520 c0 -5 -2 -10 -4 -10 -3 0 -8 5 -11 10 -3 6
-1 10 4 10 6 0 11 -4 11 -10z"/>
</g>
</svg>
